HIERARCHY
ROOT Hips
{
	OFFSET 0.000000 71.427986 0.000000
	CHANNELS 6 Xposition Yposition Zposition Xrotation Yrotation Zrotation
	JOINT Pelvis
	{
		OFFSET 0.000000 0.000000 0.000000
		CHANNELS 3 Xrotation Yrotation Zrotation
		JOINT LeftUpLeg
		{
			OFFSET 6.797100 -2.508499 -1.318700
			CHANNELS 3 Xrotation Yrotation Zrotation
			JOINT LeftLeg
			{
				OFFSET 0.069008 -29.241863 0.690200
				CHANNELS 3 Xrotation Yrotation Zrotation
				JOINT LeftFoot
				{
					OFFSET -0.069008 -29.568123 -0.266800
					CHANNELS 3 Xrotation Yrotation Zrotation
					JOINT LeftToeBase
					{
						OFFSET 3.145500 -8.631000 16.059900
						CHANNELS 3 Xrotation Yrotation Zrotation
						End Site
						{
							OFFSET 0.000000 18.501587 0.000000
						}
					}
				}
			}
			JOINT Left_ShortSleeve
			{
				OFFSET 0.265923 -10.480953 1.153800
				CHANNELS 3 Xrotation Yrotation Zrotation
				End Site
				{
					OFFSET 1.725763 19.823879 0.000000
				}
			}
		}
		JOINT RightUpLeg
		{
			OFFSET -6.797100 -2.508499 -1.318700
			CHANNELS 3 Xrotation Yrotation Zrotation
			JOINT RightLeg
			{
				OFFSET -0.082453 -29.241932 0.688000
				CHANNELS 3 Xrotation Yrotation Zrotation
				JOINT RightFoot
				{
					OFFSET 0.082453 -29.568058 -0.264600
					CHANNELS 3 Xrotation Yrotation Zrotation
					JOINT RightToeBase
					{
						OFFSET -3.115300 -8.682800 16.113400
						CHANNELS 3 Xrotation Yrotation Zrotation
						End Site
						{
							OFFSET 0.000000 18.567114 0.000000
						}
					}
				}
			}
			JOINT Right_ShortSleeve
			{
				OFFSET -0.265923 -10.480953 1.153800
				CHANNELS 3 Xrotation Yrotation Zrotation
				End Site
				{
					OFFSET -1.725766 19.823910 0.000000
				}
			}
		}
	}
	JOINT Spine
	{
		OFFSET 0.000000 13.368103 0.470500
		CHANNELS 3 Xrotation Yrotation Zrotation
		JOINT Spine1
		{
			OFFSET 0.147000 13.837402 0.538800
			CHANNELS 3 Xrotation Yrotation Zrotation
			JOINT Spine2
			{
				OFFSET 0.168000 16.242897 -1.435500
				CHANNELS 3 Xrotation Yrotation Zrotation
				JOINT Neck
				{
					OFFSET 0.217200 18.631500 -1.679100
					CHANNELS 3 Xrotation Yrotation Zrotation
					JOINT Head
					{
						OFFSET 0.000000 6.599396 1.385900
						CHANNELS 3 Xrotation Yrotation Zrotation
						JOINT Hat
						{
							OFFSET -0.532200 27.220596 -10.096100
							CHANNELS 3 Xrotation Yrotation Zrotation
							End Site
							{
								OFFSET 0.000000 22.029861 0.000000
							}
						}
						JOINT HairD
						{
							OFFSET -10.777400 17.437393 -1.325900
							CHANNELS 3 Xrotation Yrotation Zrotation
							JOINT HairD1
							{
								OFFSET -3.290299 -11.051193 1.062200
								CHANNELS 3 Xrotation Yrotation Zrotation
								End Site
								{
									OFFSET 0.000000 11.579437 0.000000
								}
							}
						}
						JOINT HairB
						{
							OFFSET -10.777400 17.437393 1.467900
							CHANNELS 3 Xrotation Yrotation Zrotation
							JOINT HairB1
							{
								OFFSET -1.561200 -12.956299 3.590200
								CHANNELS 3 Xrotation Yrotation Zrotation
								End Site
								{
									OFFSET 0.000000 13.534866 0.000000
								}
							}
						}
						JOINT HairA
						{
							OFFSET 9.713100 17.437393 1.467900
							CHANNELS 3 Xrotation Yrotation Zrotation
							JOINT HairA1
							{
								OFFSET 1.561200 -12.956299 3.590200
								CHANNELS 3 Xrotation Yrotation Zrotation
								End Site
								{
									OFFSET 0.000000 13.534866 0.000000
								}
							}
						}
						JOINT HairC
						{
							OFFSET 9.713100 17.437393 -1.325900
							CHANNELS 3 Xrotation Yrotation Zrotation
							JOINT HairC1
							{
								OFFSET 3.290300 -11.051193 1.062200
								CHANNELS 3 Xrotation Yrotation Zrotation
								End Site
								{
									OFFSET 0.000000 11.579437 0.000000
								}
							}
						}
					}
				}
				JOINT LeftShoulder
				{
					OFFSET 5.101800 15.108002 -2.763700
					CHANNELS 3 Xrotation Yrotation Zrotation
					JOINT LeftArm
					{
						OFFSET 9.825497 2.506317 -1.597400
						CHANNELS 3 Xrotation Yrotation Zrotation
						JOINT LeftForeArm
						{
							OFFSET 21.966244 0.000000 0.000000
							CHANNELS 3 Xrotation Yrotation Zrotation
							JOINT LeftHand
							{
								OFFSET 33.879036 0.000000 0.000000
								CHANNELS 3 Xrotation Yrotation Zrotation
								JOINT LeftHandThumb1
								{
									OFFSET 6.715286 -2.359680 3.363841
									CHANNELS 3 Xrotation Yrotation Zrotation
									JOINT LeftHandThumb2
									{
										OFFSET 2.507072 -1.447464 1.447461
										CHANNELS 3 Xrotation Yrotation Zrotation
										JOINT LeftHandThumb3
										{
											OFFSET 2.898338 -1.673355 1.673357
											CHANNELS 3 Xrotation Yrotation Zrotation
											End Site
											{
												OFFSET -0.295959 3.727692 -0.131651
											}
										}
									}
								}
								JOINT LeftHandIndex1
								{
									OFFSET 14.190811 -0.254547 3.840278
									CHANNELS 3 Xrotation Yrotation Zrotation
									JOINT LeftHandIndex2
									{
										OFFSET 3.551727 0.000000 -0.000000
										CHANNELS 3 Xrotation Yrotation Zrotation
										JOINT LeftHandIndex3
										{
											OFFSET 2.894196 0.000000 0.000000
											CHANNELS 3 Xrotation Yrotation Zrotation
											End Site
											{
												OFFSET -1.000603 2.690872 0.366626
											}
										}
									}
								}
								JOINT LeftHandMiddle1
								{
									OFFSET 13.776489 0.000000 0.000000
									CHANNELS 3 Xrotation Yrotation Zrotation
									JOINT LeftHandMiddle2
									{
										OFFSET 3.438232 0.000000 0.000000
										CHANNELS 3 Xrotation Yrotation Zrotation
										JOINT LeftHandMiddle3
										{
											OFFSET 3.691551 0.000000 0.000000
											CHANNELS 3 Xrotation Yrotation Zrotation
											End Site
											{
												OFFSET -1.082298 3.499527 0.457670
											}
										}
									}
								}
								JOINT LeftHandRing1
								{
									OFFSET 13.966164 -0.268127 -3.067488
									CHANNELS 3 Xrotation Yrotation Zrotation
									JOINT LeftHandRing2
									{
										OFFSET 3.162567 0.000000 0.000000
										CHANNELS 3 Xrotation Yrotation Zrotation
										JOINT LeftHandRing3
										{
											OFFSET 3.324348 0.000000 0.000000
											CHANNELS 3 Xrotation Yrotation Zrotation
											End Site
											{
												OFFSET -0.861900 3.184998 0.405154
											}
										}
									}
								}
								JOINT LeftHandPinky1
								{
									OFFSET 13.131393 -0.168503 -5.746925
									CHANNELS 3 Xrotation Yrotation Zrotation
									JOINT LeftHandPinky2
									{
										OFFSET 2.849182 0.000000 0.000000
										CHANNELS 3 Xrotation Yrotation Zrotation
										JOINT LeftHandPinky3
										{
											OFFSET 2.805038 0.000000 0.000000
											CHANNELS 3 Xrotation Yrotation Zrotation
											End Site
											{
												OFFSET -0.882500 2.642609 0.325652
											}
										}
									}
								}
							}
							JOINT Left_Sleeve
							{
								OFFSET 6.592125 -0.646545 0.805568
								CHANNELS 3 Xrotation Yrotation Zrotation
								End Site
								{
									OFFSET -0.000179 20.275787 -0.000000
								}
							}
						}
					}
				}
				JOINT RightShoulder
				{
					OFFSET -5.731700 15.108002 -2.763700
					CHANNELS 3 Xrotation Yrotation Zrotation
					JOINT RightArm
					{
						OFFSET -9.825497 2.506317 -1.597400
						CHANNELS 3 Xrotation Yrotation Zrotation
						JOINT RightForeArm
						{
							OFFSET -21.966242 0.000000 0.000000
							CHANNELS 3 Xrotation Yrotation Zrotation
							JOINT RightHand
							{
								OFFSET -33.879032 0.000000 0.000000
								CHANNELS 3 Xrotation Yrotation Zrotation
								JOINT RightHandThumb1
								{
									OFFSET -6.715286 -2.359680 3.363841
									CHANNELS 3 Xrotation Yrotation Zrotation
									JOINT RightHandThumb2
									{
										OFFSET -2.507072 -1.447464 1.447461
										CHANNELS 3 Xrotation Yrotation Zrotation
										JOINT RightHandThumb3
										{
											OFFSET -2.898338 -1.673355 1.673357
											CHANNELS 3 Xrotation Yrotation Zrotation
											End Site
											{
												OFFSET 0.295959 3.727692 -0.131651
											}
										}
									}
								}
								JOINT RightHandIndex1
								{
									OFFSET -14.190811 -0.254547 3.840278
									CHANNELS 3 Xrotation Yrotation Zrotation
									JOINT RightHandIndex2
									{
										OFFSET -3.551727 0.000000 -0.000000
										CHANNELS 3 Xrotation Yrotation Zrotation
										JOINT RightHandIndex3
										{
											OFFSET -2.894196 0.000000 0.000000
											CHANNELS 3 Xrotation Yrotation Zrotation
											End Site
											{
												OFFSET 1.000603 2.690872 0.366626
											}
										}
									}
								}
								JOINT RightHandMiddle1
								{
									OFFSET -13.776489 0.000000 0.000000
									CHANNELS 3 Xrotation Yrotation Zrotation
									JOINT RightHandMiddle2
									{
										OFFSET -3.438232 0.000000 0.000000
										CHANNELS 3 Xrotation Yrotation Zrotation
										JOINT RightHandMiddle3
										{
											OFFSET -3.691551 0.000000 0.000000
											CHANNELS 3 Xrotation Yrotation Zrotation
											End Site
											{
												OFFSET 1.082298 3.499527 0.457670
											}
										}
									}
								}
								JOINT RightHandRing1
								{
									OFFSET -13.966164 -0.268127 -3.067488
									CHANNELS 3 Xrotation Yrotation Zrotation
									JOINT RightHandRing2
									{
										OFFSET -3.162567 0.000000 0.000000
										CHANNELS 3 Xrotation Yrotation Zrotation
										JOINT RightHandRing3
										{
											OFFSET -3.324348 0.000000 0.000000
											CHANNELS 3 Xrotation Yrotation Zrotation
											End Site
											{
												OFFSET 0.861900 3.184998 0.405154
											}
										}
									}
								}
								JOINT RightHandPinky1
								{
									OFFSET -13.131393 -0.168503 -5.746925
									CHANNELS 3 Xrotation Yrotation Zrotation
									JOINT RightHandPinky2
									{
										OFFSET -2.849182 0.000000 0.000000
										CHANNELS 3 Xrotation Yrotation Zrotation
										JOINT RightHandPinky3
										{
											OFFSET -2.805038 0.000000 0.000000
											CHANNELS 3 Xrotation Yrotation Zrotation
											End Site
											{
												OFFSET 0.882500 2.642609 0.325652
											}
										}
									}
								}
							}
							JOINT Right_Sleeve
							{
								OFFSET -6.592125 -0.646545 0.805568
								CHANNELS 3 Xrotation Yrotation Zrotation
								End Site
								{
									OFFSET 0.000179 20.275787 -0.000000
								}
							}
						}
					}
				}
				JOINT Bind_Right_JacketString
				{
					OFFSET -3.534800 11.969597 7.200700
					CHANNELS 3 Xrotation Yrotation Zrotation
					JOINT Bind_Right_JacketString1
					{
						OFFSET -0.319900 -6.102600 2.794100
						CHANNELS 3 Xrotation Yrotation Zrotation
						End Site
						{
							OFFSET 0.000000 6.719452 0.000000
						}
					}
				}
				JOINT Bind_Left_JacketString
				{
					OFFSET 2.904800 11.969597 7.200700
					CHANNELS 3 Xrotation Yrotation Zrotation
					JOINT Bind_Left_JacketString1
					{
						OFFSET 0.364800 -5.904503 3.186800
						CHANNELS 3 Xrotation Yrotation Zrotation
						End Site
						{
							OFFSET 0.000000 6.719513 0.000000
						}
					}
				}
				JOINT HairE
				{
					OFFSET 5.915200 17.612701 -11.592200
					CHANNELS 3 Xrotation Yrotation Zrotation
					JOINT HairE1
					{
						OFFSET 0.289200 -7.171898 -1.284500
						CHANNELS 3 Xrotation Yrotation Zrotation
						End Site
						{
							OFFSET 0.000000 7.291756 0.000000
						}
					}
				}
				JOINT HairF
				{
					OFFSET -0.864800 17.612701 -11.592200
					CHANNELS 3 Xrotation Yrotation Zrotation
					JOINT HairF1
					{
						OFFSET 0.000000 -14.087097 -2.127501
						CHANNELS 3 Xrotation Yrotation Zrotation
						End Site
						{
							OFFSET 0.000000 14.246841 0.000000
						}
					}
				}
				JOINT HairG
				{
					OFFSET -8.087700 17.612701 -11.592200
					CHANNELS 3 Xrotation Yrotation Zrotation
					JOINT HairG1
					{
						OFFSET -0.293600 -6.081398 -0.910100
						CHANNELS 3 Xrotation Yrotation Zrotation
						End Site
						{
							OFFSET 0.000000 6.156120 0.000000
						}
					}
				}
			}
		}
	}
	JOINT Pouch
	{
		OFFSET 0.000000 4.394501 10.847300
		CHANNELS 3 Xrotation Yrotation Zrotation
		End Site
		{
			OFFSET 0.000000 21.880577 0.000000
		}
	}
	JOINT Bag
	{
		OFFSET -13.229000 4.813004 -0.593300
		CHANNELS 3 Xrotation Yrotation Zrotation
		End Site
		{
			OFFSET 0.000000 21.880577 0.000000
		}
	}
	JOINT OccupyGuyFacialAnim_Joint
	{
		OFFSET 1.000000 -70.206398 -1.655000
		CHANNELS 3 Xrotation Yrotation Zrotation
		End Site
		{
			OFFSET 0.000000 21.880577 0.000000
		}
	}
}
MOTION
Frames: 5
Frame Time: 0.016667
-1.053213 64.582314 0.677052 -10.681727 -53.626394 -2.376963 -0.000000 0.000002 0.000000 -22.016387 15.866646 18.985528 40.772104 -3.817669 -0.820818 -9.733966 1.744566 -13.643383 -0.000000 0.000000 0.000000 -0.000004 -0.000005 -0.000002 -22.759078 -1.898656 -20.342358 51.382034 3.344485 -8.062773 -21.237763 -3.711468 15.462498 -0.000000 -0.000003 0.000000 0.000001 -0.000002 -0.000000 6.703589 0.907804 -2.693124 13.440117 1.505925 -5.282125 13.440112 1.505933 -5.282126 3.996216 2.607463 -0.466373 -8.638512 40.681320 -5.376922 -0.000001 -0.000000 0.000001 -0.000001 -0.000000 0.000001 -0.000001 -0.000000 0.000001 -0.000001 -0.000000 0.000001 -0.000001 -0.000000 0.000000 -0.000001 -0.000000 0.000001 -0.000001 -0.000000 0.000000 -0.000001 -0.000000 0.000001 -0.000001 -0.000000 0.000001 -0.177271 -6.033944 5.204526 -21.071653 17.785761 -57.231487 0.000011 -126.318775 0.000009 -6.641480 -5.398326 -3.626837 -2.154166 6.800151 9.892471 25.836143 36.182411 -25.085234 -0.000000 -0.000001 -0.000002 20.887347 7.646003 -92.409604 7.469738 5.623424 -106.086847 0.000002 -0.000001 -0.000002 12.668634 7.118947 -99.980453 7.120938 5.712061 -102.556001 0.000003 0.000002 -0.000004 5.682250 8.252668 -95.779449 8.216144 5.353285 -113.878767 0.000001 0.000000 -0.000001 -3.644678 8.906863 -93.940031 7.168192 5.701398 -103.031054 0.000004 0.000002 -0.000000 0.000001 -0.000001 -0.000002 10.920047 26.931036 3.130400 -46.478170 38.185866 48.496081 0.000100 110.564493 -0.000092 -26.511572 16.043018 15.588635 -8.123085 -3.695101 -18.700522 26.149333 -37.962099 25.226202 0.000003 0.000000 0.000002 19.570647 -6.576500 91.648530 5.944026 -4.476198 106.057668 -0.000004 0.000000 -0.000001 11.200870 -5.955894 99.192699 5.666686 -4.546653 102.532717 0.000002 0.000001 -0.000001 4.287396 -6.986168 95.001593 6.537648 -4.261405 113.838162 -0.000000 -0.000003 0.000001 -5.006086 -7.516093 93.188144 5.704279 -4.538200 103.006991 -0.000001 0.000002 -0.000004 -0.000000 0.000000 0.000001 0.000002 -0.000001 0.000001 0.000003 -0.000001 -0.000000 0.000002 -0.000001 0.000001 0.000002 -0.000001 0.000001 0.000002 -0.000001 0.000001 0.000003 -0.000001 -0.000000 0.000002 -0.000001 0.000001 0.000002 -0.000001 0.000001 0.000002 -0.000001 0.000001 0.000003 -0.000001 -0.000000 -0.000000 0.000002 0.000000 -0.000000 0.000002 0.000000 -0.000000 0.000002 0.000000 
-1.474182 64.601601 0.188787 -10.904300 -53.129272 -2.035009 0.000001 -0.000003 -0.000001 -21.122464 15.592113 18.443894 39.312523 -4.417910 -0.311865 -8.848405 2.574592 -14.235270 -0.000000 0.000000 -0.000000 0.000001 -0.000002 -0.000000 -22.879059 -2.024661 -20.236741 52.454828 2.844528 -7.871942 -22.478448 -3.947343 13.554386 -0.000000 -0.000002 0.000000 0.000002 0.000000 0.000000 6.884717 0.459723 -3.262962 13.428630 1.385313 -5.296944 13.420778 1.411916 -5.309466 4.071264 2.649592 -0.515532 -6.896895 40.845166 -6.341603 0.000000 -0.000000 -0.000001 0.000000 -0.000000 -0.000001 0.000000 -0.000000 -0.000000 0.000000 -0.000000 -0.000001 -0.000001 -0.000000 0.000000 0.000000 -0.000000 -0.000001 -0.000001 -0.000000 0.000000 0.000000 -0.000000 -0.000001 0.000000 -0.000000 -0.000001 -0.474792 -6.155463 3.198669 -17.792054 18.997988 -56.886006 0.000006 -127.660662 0.000002 -8.813718 -2.100043 4.977250 -2.188142 6.630862 9.840804 25.854675 36.200044 -25.080882 0.000000 -0.000002 -0.000001 20.610403 7.814839 -91.789266 7.445520 5.630303 -105.840003 0.000001 0.000004 0.000002 12.580251 7.208636 -99.250189 7.098225 5.717032 -102.328030 0.000003 -0.000002 0.000002 5.709271 8.240758 -95.092803 8.194816 5.362636 -113.650359 -0.000002 0.000001 -0.000002 -3.440369 8.797296 -93.391745 7.145250 5.706624 -102.800337 -0.000000 0.000002 -0.000002 0.000000 0.000000 -0.000003 10.865821 26.827595 2.963929 -46.847888 38.723590 50.356574 0.000209 107.879477 -0.000217 -24.744585 13.727477 13.795272 -8.127556 -3.556516 -18.647069 26.048241 -37.885027 25.176156 0.000003 0.000000 0.000001 19.390045 -6.733590 91.056155 5.924101 -4.481867 105.802362 -0.000001 0.000000 -0.000001 11.102794 -6.063365 98.288546 5.648050 -4.550751 102.297669 0.000000 0.000003 -0.000004 4.274377 -6.978745 94.402421 6.520053 -4.269112 113.601626 0.000000 0.000000 -0.000002 -4.791101 -7.407645 92.634932 5.686471 -4.542246 102.782353 0.000001 0.000002 -0.000003 0.000002 -0.000002 -0.000003 0.000001 -0.000003 -0.000000 0.000003 0.000001 -0.000002 0.000001 -0.000003 -0.000000 0.000001 -0.000003 -0.000000 0.000001 -0.000003 -0.000000 0.000003 0.000001 -0.000001 0.000001 -0.000003 -0.000000 0.000001 -0.000003 -0.000000 0.000001 -0.000003 -0.000000 0.000003 0.000001 -0.000001 0.000001 -0.000003 -0.000001 0.000001 -0.000003 -0.000001 0.000001 -0.000003 -0.000001 
-1.840626 64.643417 -0.487391 -10.730518 -52.072894 -1.494065 -0.000001 0.000001 -0.000000 -20.457448 14.689561 17.702506 37.364386 -4.041052 0.505840 -7.356174 2.658611 -15.288690 0.000000 0.000002 -0.000000 0.000000 0.000000 0.000001 -22.953882 -2.176214 -19.965563 53.305703 2.494751 -7.501493 -23.305362 -4.717743 12.067919 -0.000000 0.000001 -0.000000 -0.000002 0.000001 0.000001 7.705435 0.243926 -3.843070 13.471028 1.247491 -5.375649 13.463745 1.291646 -5.383115 3.970770 2.575114 -0.513154 -6.939621 39.500299 -7.024651 0.000001 0.000000 -0.000000 0.000001 0.000000 -0.000000 0.000001 0.000000 -0.000000 0.000001 0.000000 -0.000000 0.000001 0.000000 -0.000000 0.000001 0.000000 -0.000000 0.000001 0.000000 -0.000000 0.000001 0.000000 -0.000000 0.000001 0.000000 -0.000000 -0.604231 -6.510260 2.042936 -15.274320 19.486417 -56.458067 0.000008 -128.879618 0.000012 -13.542289 1.471581 15.982699 -2.260598 6.272419 9.731087 25.893607 36.237196 -25.070932 0.000002 0.000001 0.000001 20.016844 8.154995 -90.469332 7.393986 5.644611 -105.315418 0.000002 0.000001 0.000002 12.388812 7.393804 -97.702045 7.049942 5.727307 -101.843769 -0.000001 0.000000 -0.000001 5.767004 8.220466 -93.638239 8.149374 5.382246 -113.164862 -0.000002 0.000000 -0.000001 -3.004417 8.580152 -92.228051 7.096465 5.717434 -102.310292 -0.000001 0.000002 -0.000004 -0.000001 0.000002 0.000004 10.874060 26.686434 2.331217 -47.669891 38.728959 52.535660 0.000339 105.112670 -0.000347 -23.149367 9.982416 13.220436 -8.137358 -3.262893 -18.533817 25.834267 -37.721168 25.070337 0.000000 0.000001 -0.000001 19.001484 -7.055814 89.797030 5.881593 -4.493631 105.259233 0.000003 -0.000003 0.000003 10.888997 -6.283868 96.371490 5.608363 -4.559206 101.797693 0.000001 -0.000000 -0.000003 4.247056 -6.963838 93.132457 6.482528 -4.285274 113.098391 -0.000002 0.000000 0.000002 -4.332482 -7.193236 91.460085 5.648635 -4.550647 102.304718 0.000004 -0.000003 0.000004 -0.000001 -0.000001 0.000002 -0.000000 0.000000 0.000001 0.000001 -0.000001 0.000002 -0.000000 0.000000 0.000000 -0.000000 0.000000 0.000000 -0.000000 0.000000 0.000001 0.000001 -0.000001 0.000002 -0.000000 0.000000 0.000000 -0.000000 0.000000 0.000000 -0.000000 0.000000 0.000001 0.000001 -0.000001 0.000002 -0.000001 0.000001 -0.000000 -0.000001 0.000001 -0.000000 -0.000001 0.000001 -0.000000 
-2.158888 64.688248 -1.304673 -10.379624 -50.553037 -0.899322 -0.000000 0.000000 -0.000001 -20.958628 13.024041 17.314381 36.414109 -3.568249 1.507220 -4.258229 2.104744 -17.320048 -0.000000 0.000001 0.000000 -0.000001 0.000000 0.000001 -23.017862 -2.421462 -19.565471 54.082264 2.195769 -6.979812 -24.059475 -5.857361 10.463955 0.000000 0.000000 -0.000000 0.000001 -0.000001 -0.000000 9.084889 0.208755 -4.363208 13.571646 1.134037 -5.519532 13.568762 1.181518 -5.516788 3.692160 2.416213 -0.492106 -8.158102 37.043483 -7.461729 0.000001 0.000000 -0.000000 0.000001 0.000000 -0.000000 0.000001 0.000000 -0.000000 0.000001 0.000000 -0.000000 0.000001 0.000000 -0.000000 0.000001 0.000000 -0.000000 0.000001 0.000000 -0.000000 0.000001 0.000000 -0.000000 0.000001 0.000000 -0.000000 -0.610949 -7.055513 1.499511 -13.733023 19.141713 -55.614419 0.000013 -129.834629 0.000005 -19.817046 3.436060 27.557071 -2.360269 5.784478 9.581072 25.946466 36.287753 -25.056983 0.000001 0.000001 -0.000001 19.194882 8.579372 -88.660063 7.323495 5.663369 -104.599860 -0.000001 0.000001 -0.000002 12.119576 7.635067 -95.591380 6.983960 5.740688 -101.183317 0.000002 0.000001 -0.000003 5.846683 8.203605 -91.657444 8.087095 5.408346 -112.502648 -0.000001 -0.000000 0.000002 -2.404185 8.317337 -90.638782 7.029829 5.731520 -101.642169 0.000000 -0.000002 0.000001 0.000002 -0.000002 -0.000002 10.915528 26.508837 1.381149 -49.008800 38.270141 54.704986 0.000476 102.389494 -0.000496 -21.485286 5.843203 12.774803 -8.151710 -2.862860 -18.379838 25.543975 -37.497209 24.928008 -0.000000 0.000002 -0.000001 18.460347 -7.470893 88.074354 5.823446 -4.509057 104.518225 0.000003 -0.000001 -0.000002 10.585451 -6.567980 93.757576 5.554080 -4.570181 101.115582 -0.000001 0.000002 -0.000000 4.210417 -6.945290 91.402507 6.431079 -4.306783 112.411656 -0.000000 -0.000002 0.000000 -3.701453 -6.935073 89.854957 5.596859 -4.561593 101.653111 -0.000000 -0.000002 -0.000001 0.000004 -0.000002 -0.000001 -0.000000 -0.000000 -0.000000 0.000002 0.000001 0.000001 -0.000000 -0.000000 -0.000001 -0.000000 -0.000000 -0.000001 -0.000000 -0.000000 -0.000000 0.000002 0.000001 0.000001 -0.000000 -0.000000 -0.000001 -0.000000 -0.000000 -0.000001 -0.000000 -0.000000 -0.000000 0.000002 0.000001 0.000001 -0.000000 0.000000 -0.000001 -0.000000 0.000000 -0.000001 -0.000000 0.000000 -0.000001 
-2.419394 64.740822 -2.300283 -9.891402 -48.427841 -0.267738 -0.000001 0.000002 -0.000000 -22.221804 10.831677 16.883425 35.854952 -2.948286 2.721063 -0.443611 0.842196 -19.024134 0.000001 -0.000003 0.000000 0.000002 0.000002 -0.000002 -23.241991 -2.740975 -19.096475 55.022290 2.013500 -6.264304 -24.551252 -7.439556 8.756273 -0.000000 0.000001 0.000000 0.000002 0.000000 -0.000002 11.211822 0.390674 -4.772517 13.743581 1.075063 -5.733797 13.747232 1.106297 -5.720679 3.149072 2.157396 -0.468787 -10.603141 33.243934 -7.617217 -0.000001 0.000000 -0.000000 -0.000001 0.000000 -0.000000 -0.000001 0.000000 -0.000000 -0.000001 0.000000 -0.000000 -0.000001 -0.000000 -0.000000 -0.000001 0.000000 -0.000000 -0.000001 -0.000000 -0.000000 -0.000001 0.000000 -0.000000 -0.000001 0.000000 -0.000000 -0.478530 -7.847184 1.562670 -13.760012 17.595766 -53.833772 0.000019 -130.472978 0.000023 -26.342522 3.338055 38.063367 -2.492739 5.144793 9.383273 26.015589 36.353958 -25.038206 0.000000 0.000001 -0.000000 18.096016 9.066986 -86.267755 7.230538 5.686654 -103.659705 0.000002 -0.000000 0.000001 11.752385 7.931934 -92.818610 6.897060 5.757111 -100.315706 -0.000001 -0.000001 0.000002 5.951901 8.200352 -89.059103 8.004819 5.441527 -111.632434 -0.000001 0.000001 0.000004 -1.607676 8.030440 -88.546764 6.942053 5.748798 -100.764756 -0.000000 -0.000001 0.000001 -0.000002 -0.000001 -0.000001 10.980228 26.274290 0.074709 -50.899946 37.183994 56.537707 0.000157 99.931296 -0.000115 -19.681137 1.609472 12.204891 -8.172162 -2.337831 -18.178318 25.165117 -37.202210 24.744420 -0.000002 0.000000 -0.000000 17.731367 -7.973013 85.801239 5.746676 -4.528163 103.544097 -0.000000 -0.000001 0.000002 10.167341 -6.911370 90.323152 5.482507 -4.583612 100.219072 -0.000002 -0.000002 0.000001 4.163192 -6.924066 89.132609 6.363061 -4.334131 111.508828 0.000002 0.000001 0.000002 -2.864775 -6.656052 87.741143 5.528653 -4.575086 100.796701 -0.000001 -0.000000 0.000002 -0.000001 0.000001 -0.000000 -0.000002 0.000000 -0.000002 -0.000001 -0.000001 -0.000000 -0.000002 0.000000 -0.000000 -0.000002 0.000000 -0.000000 -0.000002 0.000000 -0.000002 -0.000001 -0.000001 -0.000000 -0.000002 0.000000 -0.000000 -0.000002 0.000000 -0.000000 -0.000002 0.000000 -0.000002 -0.000001 -0.000001 -0.000000 -0.000001 0.000002 -0.000000 -0.000001 0.000002 -0.000000 -0.000001 0.000002 -0.000000 
